<svg xmlns="http://www.w3.org/2000/svg" viewBox="0 0 64 64"><g id="Layer_17" data-name="Layer 17"><path d="M52,32.75H34.25a1.5,1.5,0,0,0-1.5,1.5V52a1.5,1.5,0,0,0,1.5,1.5H48.62a4.89,4.89,0,0,0,4.88-4.88V34.25A1.5,1.5,0,0,0,52,32.75Z"/><path d="M48.62,10.5H34.25a1.5,1.5,0,0,0-1.5,1.5V29.75a1.5,1.5,0,0,0,1.5,1.5H52a1.5,1.5,0,0,0,1.5-1.5V15.38A4.89,4.89,0,0,0,48.62,10.5Z"/><path d="M29.75,32.75H12a1.5,1.5,0,0,0-1.5,1.5V48.62a4.89,4.89,0,0,0,4.88,4.88H29.75a1.5,1.5,0,0,0,1.5-1.5V34.25A1.5,1.5,0,0,0,29.75,32.75Z"/><path d="M29.75,10.5H15.38a4.89,4.89,0,0,0-4.88,4.88V29.75a1.5,1.5,0,0,0,1.5,1.5H29.75a1.5,1.5,0,0,0,1.5-1.5V12A1.5,1.5,0,0,0,29.75,10.5Z"/></g></svg>